<svg width="32" height="32" viewBox="0 0 32 32" fill="none" xmlns="http://www.w3.org/2000/svg">
<g clip-path="url(#clip0_1_225)">
<path fill-rule="evenodd" clip-rule="evenodd" d="M16 32C24.8366 32 32 24.8366 32 16C32 7.16344 24.8366 0 16 0C7.16344 0 0 7.16344 0 16C0 24.8366 7.16344 32 16 32Z" fill="black"/>
<path fill-rule="evenodd" clip-rule="evenodd" d="M8 11.6277V20.6878C8 21.1807 8.36077 21.5802 8.85781 21.5802H22.9977C23.4942 21.5802 23.8555 21.1761 23.8555 20.6878V11.6277C23.8555 11.0868 23.5324 10.6667 22.9977 10.6667H8.85781C8.30245 10.6667 8 11.0971 8 11.6277ZM9.30374 12.4168C9.30374 12.1985 9.43587 12.0736 9.64697 12.0736C9.77755 12.0736 14.9156 15.3294 15.2268 15.5203L16.031 16.0205C16.2859 15.8496 16.5419 15.7036 16.8062 15.5265C17.3455 15.1818 22.1445 12.0736 22.2766 12.0736C22.4883 12.0736 22.6199 12.1985 22.6199 12.4168C22.6199 12.6481 22.1745 12.8778 21.8844 13.0548C20.0619 14.1655 18.24 15.3763 16.4356 16.5283C16.3303 16.5996 16.1265 16.7518 15.9737 16.7286C15.8034 16.7023 10.575 13.3433 9.62374 12.7838C9.48077 12.6997 9.30374 12.6228 9.30374 12.4168Z" fill="white"/>
</g>
<defs>
<clipPath id="clip0_1_225">
<rect width="32" height="32" fill="white"/>
</clipPath>
</defs>
</svg>
