<svg width="32" height="32" viewBox="0 0 32 32" fill="none" xmlns="http://www.w3.org/2000/svg">
<g clip-path="url(#clip0_1_238)">
<path d="M15.996 0.00698853C7.162 0.00698853 0 7.16799 0 16.004C0 22.555 3.938 28.181 9.575 30.654C9.53 29.536 9.567 28.195 9.853 26.982C10.161 25.681 11.911 18.263 11.911 18.263C11.911 18.263 11.399 17.242 11.399 15.734C11.399 13.365 12.775 11.594 14.486 11.594C15.94 11.594 16.643 12.685 16.643 13.994C16.643 15.456 15.709 17.644 15.231 19.67C14.83 21.366 16.083 22.75 17.753 22.75C20.784 22.75 22.825 18.859 22.825 14.246C22.825 10.741 20.464 8.11799 16.17 8.11799C11.318 8.11799 8.296 11.735 8.296 15.777C8.296 17.171 8.707 18.154 9.35 18.915C9.647 19.265 9.688 19.404 9.579 19.806C9.505 20.102 9.329 20.809 9.255 21.089C9.148 21.496 8.821 21.64 8.454 21.489C6.219 20.579 5.179 18.131 5.179 15.379C5.179 10.836 9.01 5.38599 16.612 5.38599C22.718 5.38599 26.74 9.80599 26.74 14.55C26.74 20.825 23.249 25.513 18.107 25.513C16.379 25.513 14.754 24.579 14.2 23.521C14.2 23.521 13.27 27.207 13.075 27.917C12.735 29.148 12.071 30.383 11.465 31.344C12.901 31.769 14.421 32 15.996 32C24.83 32 31.991 24.84 31.991 16.004C31.991 7.16799 24.83 0.00698853 15.996 0.00698853Z" fill="#CA2028"/>
</g>
<defs>
<clipPath id="clip0_1_238">
<rect width="32" height="32" fill="white"/>
</clipPath>
</defs>
</svg>
