<svg width="32" height="32" viewBox="0 0 32 32" fill="none" xmlns="http://www.w3.org/2000/svg">
<g clip-path="url(#clip0_1_234)">
<path d="M32 16C32 7.16344 24.8366 0 16 0C7.16344 0 0 7.16344 0 16C0 24.8366 7.16344 32 16 32C24.8366 32 32 24.8366 32 16Z" fill="#55ACEE"/>
<path d="M19.8304 7.6768C17.5603 7.73432 15.7392 9.59241 15.7392 11.8768C15.7392 12.2056 15.7745 12.5271 15.8464 12.8352C12.3542 12.6598 9.25807 10.987 7.18561 8.4448C6.82392 9.06508 6.61601 9.78762 6.61601 10.5584C6.61601 12.016 7.35893 13.3011 8.48641 14.0544C7.79795 14.0324 7.14906 13.8427 6.58241 13.528C6.58209 13.5455 6.58241 13.5645 6.58241 13.5824C6.58241 15.6179 8.03123 17.3142 9.95361 17.7008C9.60106 17.7964 9.22972 17.848 8.84641 17.848C8.57535 17.848 8.31252 17.8223 8.05601 17.7728C8.59106 19.442 10.1408 20.6575 11.9792 20.6912C10.5412 21.8183 8.73215 22.4896 6.76321 22.4896C6.42438 22.4896 6.08886 22.4711 5.76001 22.432C7.62002 23.6248 9.82739 24.32 12.2 24.32C19.929 24.32 24.1552 17.9174 24.1552 12.3648C24.1552 12.1827 24.1519 11.9996 24.144 11.8192C24.9647 11.228 25.6771 10.4875 26.24 9.6448C25.4871 9.97947 24.6774 10.2062 23.8272 10.3072C24.6953 9.78752 25.3613 8.96437 25.6752 7.9824C24.8633 8.46424 23.9639 8.81445 23.0064 9.0032C22.2402 8.18669 21.1478 7.6768 19.9392 7.6768C19.903 7.6768 19.8664 7.67588 19.8304 7.6768Z" fill="white"/>
</g>
<defs>
<clipPath id="clip0_1_234">
<rect width="32" height="32" fill="white"/>
</clipPath>
</defs>
</svg>
